<svg width="11" height="11" viewBox="0 0 11 11" fill="none" xmlns="http://www.w3.org/2000/svg">
<path fill-rule="evenodd" clip-rule="evenodd" d="M11 5.5C11 8.53757 8.53757 11 5.5 11C2.46243 11 0 8.53757 0 5.5C0 2.46243 2.46243 0 5.5 0C8.53757 0 11 2.46243 11 5.5ZM8.27056 3.41702C8.17133 3.31816 8.03617 3.26391 7.89613 3.26674C7.75609 3.26956 7.62322 3.32922 7.52806 3.432L5.14045 6.47411L3.70159 5.03464C3.49805 4.84784 3.18347 4.85458 2.98813 5.04993C2.79278 5.24527 2.78603 5.55985 2.97284 5.76339L4.79181 7.58297C4.89085 7.68179 5.02579 7.73614 5.16567 7.73355C5.30556 7.73096 5.43839 7.67165 5.5337 7.56922L8.2782 4.13845C8.47289 3.93607 8.4699 3.61513 8.27147 3.41642L8.27056 3.41702Z" fill="#169C50"/>
</svg>
