<svg width="142" height="47" viewBox="0 0 142 47" fill="none" xmlns="http://www.w3.org/2000/svg">
<path d="M62.9998 10.0342H51.88V13.356H55.5608V23.398H59.319V13.356H62.9998V10.0342Z" fill="#393939"/>
<path d="M71.4496 13.0888L71.0816 13.8906C70.2292 13.1842 69.125 12.7833 67.8851 12.7833C64.6887 12.7833 62.4027 15.0552 62.4027 18.2434C62.4027 21.4507 64.6887 23.7417 67.8851 23.7417C69.1056 23.7417 70.1904 23.3599 71.0428 22.6726L71.3528 23.398H74.1424V13.0888H71.4496ZM68.3694 20.6107C67.0134 20.6107 66.0254 19.5989 66.0254 18.2434C66.0254 16.907 67.0134 15.9143 68.3694 15.9143C69.7255 15.9143 70.7135 16.907 70.7135 18.2434C70.7135 19.5989 69.7255 20.6107 68.3694 20.6107Z" fill="#393939"/>
<path d="M76.4358 11.8096H80.0003V8.79322H76.4358V11.8096ZM76.4164 23.398H80.0197V13.0888H76.4164V23.398Z" fill="#393939"/>
<path d="M86.5818 20.248L90.5338 13.6806V13.0888H81.8937V16.2388H85.555L81.545 22.8826V23.398H90.5725V20.248H86.5818Z" fill="#393939"/>
<path d="M97.3686 23.7417C100.778 23.7417 103.238 21.4316 103.238 18.2434C103.238 15.0552 100.778 12.7642 97.3686 12.7642C93.9591 12.7642 91.5181 15.0552 91.5181 18.2434C91.5181 21.4316 93.9591 23.7417 97.3686 23.7417ZM97.3686 20.5534C96.0707 20.5534 95.1214 19.618 95.1214 18.2625C95.1214 16.8879 96.0707 15.9524 97.3686 15.9524C98.6859 15.9524 99.6352 16.907 99.6352 18.2625C99.6352 19.618 98.6859 20.5534 97.3686 20.5534Z" fill="#393939"/>
<path d="M104.772 23.398H108.278V20.1143H104.772V23.398Z" fill="#393939"/>
<path d="M110.432 11.8096H113.997V8.79322H110.432V11.8096ZM110.413 23.398H114.016V13.0888H110.413V23.398Z" fill="#393939"/>
<path d="M122.593 12.8024C121.237 12.8024 120.074 13.2988 119.3 14.1579L118.815 13.0888H116.277V23.398H119.881V17.8998C119.881 16.5825 120.52 15.8188 121.644 15.8188C122.554 15.8188 123.019 16.4106 123.019 17.6134V23.398H126.622V17.117C126.622 14.5015 125.014 12.8024 122.593 12.8024Z" fill="#393939"/>
<path fill-rule="evenodd" clip-rule="evenodd" d="M0 10.5519C0 4.72424 4.72423 0 10.5519 0H35.4641C41.2917 0 46.0159 4.72423 46.0159 10.5519V35.4644C46.0159 41.2921 41.2917 46.0163 35.4641 46.0163H10.5519C4.72422 46.0163 0 41.2921 0 35.4645V10.5519Z" fill="#169C50"/>
<path fill-rule="evenodd" clip-rule="evenodd" d="M35.8292 26.9402V18.7208C37.0833 18.4532 38.0408 17.4378 38.2347 16.1704C38.4286 14.903 37.8183 13.6478 36.7017 13.0176C35.5849 12.3874 34.1949 12.5136 33.2101 13.3346L26.0511 9.20102C26.0618 9.09261 26.0683 8.98463 26.0683 8.87377C26.0683 7.16988 24.687 5.78858 22.9831 5.78858C21.2793 5.78858 19.8979 7.16987 19.8979 8.87377C19.8984 9.00446 19.9078 9.13501 19.9258 9.26443L12.8339 13.3594C11.8588 12.5256 10.4695 12.3826 9.345 13.0001C8.22056 13.6176 7.5958 14.8668 7.77613 16.137C7.95667 17.4071 8.90453 18.4329 10.1565 18.7129V26.9482C8.90695 27.227 7.9593 28.2488 7.77537 29.5158C7.59161 30.7829 8.2094 32.0319 9.3283 32.6544C10.4469 33.277 11.8341 33.1438 12.8139 32.3196L20.0722 36.5111L20.1249 36.4185C20.439 37.8258 21.0625 38.9464 21.8422 39.5089V40.0698H22.4681V39.8231C22.6348 39.8753 22.8084 39.9022 22.9831 39.9028C23.2359 39.9012 23.4853 39.8468 23.7158 39.7433V40.0707H24.343V39.3327C25.1132 38.5512 25.6311 37.5564 25.8296 36.4772L33.1352 32.259C34.1015 33.1201 35.5028 33.2861 36.6436 32.6747C37.7844 32.0633 38.422 30.8045 38.2401 29.5231C38.0583 28.2416 37.0951 27.2101 35.8292 26.9402ZM35.171 13.9115C36.1806 13.9111 36.9993 14.7291 36.9996 15.7387C37 16.7482 36.1818 17.5669 35.1723 17.5671C34.1628 17.5675 33.3442 16.7493 33.3441 15.7397C33.3441 14.7305 34.1619 13.9122 35.171 13.9115ZM25.6171 10.4763L32.3973 14.3903C32.053 15.1152 32.0074 15.9463 32.2705 16.7044L27.6831 19.3938C26.7699 18.0005 25.2852 17.0845 23.6301 16.8934V11.8903C24.4576 11.7112 25.1755 11.2002 25.6153 10.4767L25.6171 10.4763ZM22.9686 7.08065C23.9782 7.08019 24.797 7.8982 24.7974 8.9078C24.7976 9.9173 23.9794 10.7359 22.9699 10.7362C21.9605 10.7365 21.1419 9.91838 21.1417 8.90882C21.1417 7.9008 21.9583 7.08277 22.9668 7.08103L22.9686 7.08065ZM20.3828 10.5262C20.8201 11.2151 21.5128 11.7025 22.3091 11.8816V16.8982C20.6472 17.0991 19.1618 18.031 18.2575 19.4396L13.7189 16.7886C14.0125 16.0209 13.983 15.167 13.6371 14.4214L20.3828 10.5262ZM8.99014 15.7393C8.98933 14.7295 9.80753 13.9103 10.8174 13.91C11.8272 13.9095 12.6463 14.7279 12.6464 15.7377C12.6464 16.748 11.8278 17.5666 10.8178 17.5664C9.80838 17.567 8.9896 16.7495 8.98836 15.7401L8.99014 15.7393ZM10.8182 31.8202C9.80828 31.8208 8.98933 31.0024 8.98922 29.9924C8.98922 28.9824 9.80817 28.1639 10.8181 28.1645C11.8279 28.165 12.6459 28.9844 12.6448 29.9943C12.644 31.0034 11.8257 31.8209 10.8166 31.8209L10.8182 31.8202ZM11.4784 26.9394V18.7208C12.0541 18.5983 12.5825 18.3128 13.0004 17.8984L17.6795 20.63C17.1643 22.0897 17.2809 23.6981 18.0012 25.0682L13.1427 27.9157C12.7059 27.4208 12.1219 27.0789 11.4765 26.9402L11.4784 26.9394ZM26.0543 34.8223C26.0624 34.6629 26.0674 34.5035 26.0674 34.3404C26.0674 31.687 25.0365 29.4705 23.658 28.916V24.2207C24.5069 23.9167 25.0139 23.0462 24.8598 22.1579C24.7055 21.2695 23.9345 20.6209 23.0329 20.6209C22.1314 20.6209 21.3604 21.2695 21.2061 22.1579C21.0518 23.0462 21.559 23.9167 22.4079 24.2207V28.8781C20.9807 29.3652 19.9007 31.624 19.9007 34.3396C19.9007 34.527 19.9075 34.712 19.9166 34.8942L13.626 31.2609C13.8185 30.8529 13.9186 30.4076 13.919 29.9564C13.9186 29.6546 13.8741 29.3544 13.7871 29.0654L18.7454 26.1597C19.5864 27.127 20.7328 27.7777 21.9944 28.0039V26.6935C19.8641 26.1945 18.4392 24.1868 18.6713 22.0111C18.9034 19.8355 20.72 18.1736 22.9077 18.1353C25.0952 18.0972 26.9687 19.6947 27.2767 21.8609C27.5847 24.0272 26.2305 26.0835 24.1188 26.6564V27.9831C25.3136 27.7358 26.3952 27.1061 27.2 26.1892L32.2195 29.1201C32.0248 29.8034 32.0733 30.5331 32.3566 31.1847L26.0543 34.8223ZM32.8424 27.9548L27.9527 25.0993C28.6952 23.7055 28.8111 22.062 28.2717 20.5778L32.9569 17.8319C33.3766 18.2729 33.9177 18.5794 34.5117 18.7124V26.9478C33.86 27.0931 33.2733 27.4468 32.8406 27.9552L32.8424 27.9548ZM35.1715 31.8217C34.1618 31.8224 33.3428 31.0042 33.3424 29.9945C33.3421 28.9849 34.1605 28.1661 35.1701 28.1661C36.1799 28.1661 36.9983 28.9847 36.9981 29.9944C36.9972 31.0029 36.1801 31.821 35.1715 31.8217Z" fill="white"/>
<path d="M55.2988 35.1729V27.7866H59.8678V28.5147H56.1852V31.0893H59.5512V31.8068H56.1852V34.4448H59.8678V35.1729H55.2988Z" fill="#393939"/>
<path d="M61.2021 35.1729V29.9392H62.004L62.0673 30.6989C62.2362 30.4175 62.4613 30.1994 62.7426 30.0447C63.024 29.8899 63.3406 29.8125 63.6923 29.8125C64.1074 29.8125 64.4626 29.8969 64.758 30.0658C65.0605 30.2346 65.2927 30.4914 65.4545 30.8361C65.6374 30.5195 65.8871 30.2698 66.2037 30.0869C66.5272 29.904 66.8755 29.8125 67.2483 29.8125C67.8744 29.8125 68.3738 30.0025 68.7467 30.3823C69.1195 30.7552 69.3059 31.332 69.3059 32.1128V35.1729H68.4301V32.2078C68.4301 31.6661 68.3211 31.2581 68.103 30.9838C67.8849 30.7094 67.5719 30.5723 67.1639 30.5723C66.7418 30.5723 66.3901 30.7376 66.1087 31.0682C65.8343 31.3918 65.6972 31.8561 65.6972 32.461V35.1729H64.8108V32.2078C64.8108 31.6661 64.7018 31.2581 64.4837 30.9838C64.2656 30.7094 63.9526 30.5723 63.5446 30.5723C63.1295 30.5723 62.7813 30.7376 62.5 31.0682C62.2256 31.3918 62.0884 31.8561 62.0884 32.461V35.1729H61.2021Z" fill="#393939"/>
<path d="M70.641 37.4943V29.9392H71.443L71.5274 30.8044C71.6962 30.5512 71.9354 30.3225 72.2449 30.1185C72.5615 29.9145 72.9625 29.8125 73.4478 29.8125C73.9684 29.8125 74.4221 29.9321 74.809 30.1713C75.1959 30.4105 75.4949 30.7376 75.7059 31.1526C75.924 31.5677 76.033 32.039 76.033 32.5666C76.033 33.0942 75.924 33.5655 75.7059 33.9805C75.4949 34.3885 75.1924 34.7121 74.7985 34.9513C74.4116 35.1834 73.9578 35.2995 73.4373 35.2995C73.0082 35.2995 72.6248 35.2116 72.2871 35.0357C71.9565 34.8598 71.7033 34.6136 71.5274 34.2971V37.4943H70.641ZM73.3423 34.5292C73.694 34.5292 74.0036 34.4483 74.2709 34.2865C74.5382 34.1177 74.7492 33.8856 74.904 33.5901C75.0588 33.2946 75.1361 32.95 75.1361 32.556C75.1361 32.1621 75.0588 31.8174 74.904 31.5219C74.7492 31.2265 74.5382 30.9979 74.2709 30.8361C74.0036 30.6672 73.694 30.5828 73.3423 30.5828C72.9906 30.5828 72.6811 30.6672 72.4138 30.8361C72.1464 30.9979 71.9354 31.2265 71.7806 31.5219C71.6259 31.8174 71.5485 32.1621 71.5485 32.556C71.5485 32.95 71.6259 33.2946 71.7806 33.5901C71.9354 33.8856 72.1464 34.1177 72.4138 34.2865C72.6811 34.4483 72.9906 34.5292 73.3423 34.5292Z" fill="#393939"/>
<path d="M77.2669 35.1729V27.5755H78.1532V35.1729H77.2669Z" fill="#393939"/>
<path d="M81.9907 35.2995C81.4983 35.2995 81.0551 35.1869 80.6612 34.9618C80.2672 34.7367 79.9542 34.4202 79.7221 34.0122C79.497 33.5971 79.3844 33.1117 79.3844 32.556C79.3844 32.0003 79.5005 31.5184 79.7326 31.1104C79.9648 30.6954 80.2778 30.3753 80.6717 30.1502C81.0727 29.9251 81.5194 29.8125 82.0118 29.8125C82.5042 29.8125 82.9474 29.9251 83.3414 30.1502C83.7353 30.3753 84.0448 30.6954 84.2699 31.1104C84.5021 31.5184 84.6181 32.0003 84.6181 32.556C84.6181 33.1117 84.5021 33.5971 84.2699 34.0122C84.0378 34.4202 83.7212 34.7367 83.3203 34.9618C82.9263 35.1869 82.4831 35.2995 81.9907 35.2995ZM81.9907 34.5398C82.2932 34.5398 82.5746 34.4659 82.8349 34.3182C83.0952 34.1705 83.3062 33.9489 83.468 33.6534C83.6298 33.358 83.7107 32.9922 83.7107 32.556C83.7107 32.1199 83.6298 31.7541 83.468 31.4586C83.3132 31.1632 83.1057 30.9416 82.8454 30.7939C82.5851 30.6461 82.3073 30.5723 82.0118 30.5723C81.7093 30.5723 81.428 30.6461 81.1677 30.7939C80.9074 30.9416 80.6964 31.1632 80.5346 31.4586C80.3728 31.7541 80.2919 32.1199 80.2919 32.556C80.2919 32.9922 80.3728 33.358 80.5346 33.6534C80.6964 33.9489 80.9039 34.1705 81.1571 34.3182C81.4174 34.4659 81.6953 34.5398 81.9907 34.5398Z" fill="#393939"/>
<path d="M85.9979 37.4943L87.2958 34.6664H86.9898L84.911 29.9392H85.8713L87.6018 34.0122L89.4378 29.9392H90.3558L86.9264 37.4943H85.9979Z" fill="#393939"/>
<path d="M93.1498 35.2995C92.6504 35.2995 92.2072 35.1869 91.8203 34.9618C91.4334 34.7297 91.1274 34.4096 90.9023 34.0016C90.6842 33.5936 90.5752 33.1117 90.5752 32.556C90.5752 32.0073 90.6842 31.529 90.9023 31.121C91.1203 30.7059 91.4228 30.3859 91.8097 30.1607C92.2037 29.9286 92.6574 29.8125 93.1709 29.8125C93.6774 29.8125 94.1135 29.9286 94.4793 30.1607C94.8522 30.3859 95.1371 30.6848 95.334 31.0577C95.531 31.4305 95.6295 31.8315 95.6295 32.2606C95.6295 32.3379 95.626 32.4153 95.6189 32.4927C95.6189 32.5701 95.6189 32.658 95.6189 32.7565H91.451C91.4721 33.1575 91.5635 33.4916 91.7253 33.7589C91.8941 34.0192 92.1017 34.2162 92.3479 34.3498C92.6011 34.4835 92.8684 34.5503 93.1498 34.5503C93.5156 34.5503 93.8216 34.4659 94.0678 34.2971C94.314 34.1282 94.4934 33.8996 94.606 33.6112H95.4818C95.3411 34.0966 95.0703 34.5011 94.6693 34.8247C94.2753 35.1412 93.7689 35.2995 93.1498 35.2995ZM93.1498 30.5617C92.7277 30.5617 92.3514 30.6919 92.0208 30.9521C91.6972 31.2054 91.5108 31.5782 91.4615 32.0706H94.7537C94.7326 31.5993 94.5708 31.23 94.2683 30.9627C93.9658 30.6954 93.593 30.5617 93.1498 30.5617Z" fill="#393939"/>
<path d="M96.8043 35.1729V29.9392H97.6062L97.6801 30.9416C97.8419 30.5969 98.0881 30.3225 98.4187 30.1185C98.7494 29.9145 99.1574 29.8125 99.6428 29.8125V30.7411H99.4001C99.0905 30.7411 98.8056 30.7974 98.5454 30.9099C98.2851 31.0154 98.0776 31.1983 97.9228 31.4586C97.768 31.7189 97.6907 32.0777 97.6907 32.5349V35.1729H96.8043Z" fill="#393939"/>
<path d="M106.722 35.2995C105.998 35.2995 105.372 35.1412 104.844 34.8247C104.324 34.5011 103.919 34.0544 103.631 33.4846C103.342 32.9077 103.198 32.2395 103.198 31.4797C103.198 30.727 103.342 30.0658 103.631 29.496C103.919 28.9191 104.324 28.4689 104.844 28.1453C105.372 27.8217 105.998 27.66 106.722 27.66C107.566 27.66 108.252 27.864 108.78 28.272C109.315 28.6729 109.656 29.2357 109.803 29.9603H108.822C108.71 29.503 108.477 29.1372 108.126 28.8629C107.781 28.5815 107.313 28.4408 106.722 28.4408C106.195 28.4408 105.734 28.5639 105.34 28.8101C104.946 29.0493 104.64 29.3975 104.422 29.8547C104.211 30.305 104.105 30.8466 104.105 31.4797C104.105 32.1128 104.211 32.658 104.422 33.1153C104.64 33.5655 104.946 33.9137 105.34 34.1599C105.734 34.3991 106.195 34.5187 106.722 34.5187C107.313 34.5187 107.781 34.385 108.126 34.1177C108.477 33.8433 108.71 33.4811 108.822 33.0308H109.803C109.656 33.7413 109.315 34.2971 108.78 34.698C108.252 35.099 107.566 35.2995 106.722 35.2995Z" fill="#393939"/>
<path d="M113.409 35.2995C112.917 35.2995 112.474 35.1869 112.08 34.9618C111.686 34.7367 111.373 34.4202 111.141 34.0122C110.916 33.5971 110.803 33.1117 110.803 32.556C110.803 32.0003 110.919 31.5184 111.151 31.1104C111.383 30.6954 111.696 30.3753 112.09 30.1502C112.491 29.9251 112.938 29.8125 113.43 29.8125C113.923 29.8125 114.366 29.9251 114.76 30.1502C115.154 30.3753 115.463 30.6954 115.689 31.1104C115.921 31.5184 116.037 32.0003 116.037 32.556C116.037 33.1117 115.921 33.5971 115.689 34.0122C115.456 34.4202 115.14 34.7367 114.739 34.9618C114.345 35.1869 113.902 35.2995 113.409 35.2995ZM113.409 34.5398C113.712 34.5398 113.993 34.4659 114.253 34.3182C114.514 34.1705 114.725 33.9489 114.887 33.6534C115.048 33.358 115.129 32.9922 115.129 32.556C115.129 32.1199 115.048 31.7541 114.887 31.4586C114.732 31.1632 114.524 30.9416 114.264 30.7939C114.004 30.6461 113.726 30.5723 113.43 30.5723C113.128 30.5723 112.847 30.6461 112.586 30.7939C112.326 30.9416 112.115 31.1632 111.953 31.4586C111.791 31.7541 111.71 32.1199 111.71 32.556C111.71 32.9922 111.791 33.358 111.953 33.6534C112.115 33.9489 112.322 34.1705 112.576 34.3182C112.836 34.4659 113.114 34.5398 113.409 34.5398Z" fill="#393939"/>
<path d="M117.269 35.1729V29.9392H118.071L118.124 30.8783C118.293 30.5476 118.535 30.2874 118.852 30.0974C119.168 29.9075 119.527 29.8125 119.928 29.8125C120.547 29.8125 121.04 30.0025 121.405 30.3823C121.778 30.7552 121.965 31.332 121.965 32.1128V35.1729H121.078V32.2078C121.078 31.1174 120.628 30.5723 119.728 30.5723C119.278 30.5723 118.901 30.7376 118.599 31.0682C118.303 31.3918 118.156 31.8561 118.156 32.461V35.1729H117.269Z" fill="#393939"/>
<path d="M125.312 35.2995C124.686 35.2995 124.166 35.1412 123.751 34.8247C123.336 34.5081 123.093 34.079 123.023 33.5373H123.93C123.986 33.8117 124.131 34.0509 124.363 34.2549C124.602 34.4518 124.922 34.5503 125.323 34.5503C125.696 34.5503 125.97 34.4729 126.146 34.3182C126.322 34.1564 126.41 33.9665 126.41 33.7484C126.41 33.4318 126.294 33.2208 126.062 33.1153C125.837 33.0097 125.516 32.9148 125.101 32.8304C124.82 32.7741 124.539 32.6932 124.257 32.5877C123.976 32.4822 123.74 32.3344 123.55 32.1445C123.36 31.9475 123.265 31.6908 123.265 31.3742C123.265 30.917 123.434 30.5441 123.772 30.2557C124.117 29.9603 124.581 29.8125 125.165 29.8125C125.72 29.8125 126.174 29.9532 126.526 30.2346C126.885 30.509 127.092 30.9029 127.148 31.4164H126.273C126.238 31.1491 126.121 30.9416 125.924 30.7939C125.735 30.6391 125.478 30.5617 125.154 30.5617C124.838 30.5617 124.591 30.6285 124.416 30.7622C124.247 30.8959 124.162 31.0717 124.162 31.2898C124.162 31.5008 124.271 31.6661 124.489 31.7857C124.715 31.9053 125.017 32.0073 125.397 32.0917C125.72 32.1621 126.026 32.25 126.315 32.3555C126.61 32.454 126.85 32.6053 127.032 32.8093C127.222 33.0062 127.317 33.2946 127.317 33.6745C127.324 34.1458 127.145 34.5363 126.779 34.8458C126.42 35.1483 125.932 35.2995 125.312 35.2995Z" fill="#393939"/>
<path d="M130.968 35.2995C130.476 35.2995 130.033 35.1869 129.639 34.9618C129.245 34.7367 128.932 34.4202 128.7 34.0122C128.475 33.5971 128.362 33.1117 128.362 32.556C128.362 32.0003 128.478 31.5184 128.71 31.1104C128.942 30.6954 129.255 30.3753 129.649 30.1502C130.05 29.9251 130.497 29.8125 130.989 29.8125C131.482 29.8125 131.925 29.9251 132.319 30.1502C132.713 30.3753 133.022 30.6954 133.247 31.1104C133.48 31.5184 133.596 32.0003 133.596 32.556C133.596 33.1117 133.48 33.5971 133.247 34.0122C133.015 34.4202 132.699 34.7367 132.298 34.9618C131.904 35.1869 131.461 35.2995 130.968 35.2995ZM130.968 34.5398C131.271 34.5398 131.552 34.4659 131.812 34.3182C132.073 34.1705 132.284 33.9489 132.446 33.6534C132.607 33.358 132.688 32.9922 132.688 32.556C132.688 32.1199 132.607 31.7541 132.446 31.4586C132.291 31.1632 132.083 30.9416 131.823 30.7939C131.563 30.6461 131.285 30.5723 130.989 30.5723C130.687 30.5723 130.406 30.6461 130.145 30.7939C129.885 30.9416 129.674 31.1632 129.512 31.4586C129.35 31.7541 129.269 32.1199 129.269 32.556C129.269 32.9922 129.35 33.358 129.512 33.6534C129.674 33.9489 129.881 34.1705 130.135 34.3182C130.395 34.4659 130.673 34.5398 130.968 34.5398Z" fill="#393939"/>
<path d="M134.828 35.1729V27.5755H135.714V35.1729H134.828Z" fill="#393939"/>
<path d="M139.52 35.2995C139.021 35.2995 138.578 35.1869 138.191 34.9618C137.804 34.7297 137.498 34.4096 137.273 34.0016C137.055 33.5936 136.946 33.1117 136.946 32.556C136.946 32.0073 137.055 31.529 137.273 31.121C137.491 30.7059 137.793 30.3859 138.18 30.1607C138.574 29.9286 139.028 29.8125 139.541 29.8125C140.048 29.8125 140.484 29.9286 140.85 30.1607C141.223 30.3859 141.508 30.6848 141.705 31.0577C141.902 31.4305 142 31.8315 142 32.2606C142 32.3379 141.996 32.4153 141.989 32.4927C141.989 32.5701 141.989 32.658 141.989 32.7565H137.821C137.843 33.1575 137.934 33.4916 138.096 33.7589C138.265 34.0192 138.472 34.2162 138.718 34.3498C138.972 34.4835 139.239 34.5503 139.52 34.5503C139.886 34.5503 140.192 34.4659 140.438 34.2971C140.685 34.1282 140.864 33.8996 140.976 33.6112H141.852C141.712 34.0966 141.441 34.5011 141.04 34.8247C140.646 35.1412 140.139 35.2995 139.52 35.2995ZM139.52 30.5617C139.098 30.5617 138.722 30.6919 138.391 30.9521C138.068 31.2054 137.881 31.5782 137.832 32.0706H141.124C141.103 31.5993 140.941 31.23 140.639 30.9627C140.336 30.6954 139.963 30.5617 139.52 30.5617Z" fill="#393939"/>
</svg>
